<svg width="48" height="196" viewBox="0 0 48 196" fill="none" xmlns="http://www.w3.org/2000/svg">
<path d="M10.6128 86.1043L11.4491 86.0308L10.6128 86.1043ZM39.1541 107.091L39.4443 107.879L39.1541 107.091ZM24.0456 94.0795L23.4369 93.5013L24.0456 94.0795ZM11.4181 137.392L12.2235 137.155L11.4181 137.392ZM4.47101 195.67C4.05226 195.869 3.55146 195.691 3.35244 195.272L0.109322 188.448C-0.0896912 188.03 0.0884438 187.529 0.507195 187.33C0.925949 187.131 1.42675 187.309 1.62576 187.728L4.50854 193.794L10.5743 190.911C10.9931 190.712 11.4939 190.89 11.6929 191.309C11.8919 191.727 11.7138 192.228 11.295 192.427L4.47101 195.67ZM4.42115 191.76C4.59783 191.332 5.08854 191.127 5.5172 191.304C5.94586 191.481 6.15014 191.971 5.97346 192.4L4.42115 191.76ZM8.49446 186.987C8.2824 187.399 7.77625 187.561 7.36395 187.349C6.95166 187.137 6.78934 186.631 7.0014 186.219L8.49446 186.987ZM9.87331 180.878C10.094 180.47 10.6034 180.319 11.0112 180.539C11.4189 180.76 11.5706 181.269 11.35 181.677L9.87331 180.878ZM14.0643 176.19C13.8827 176.617 13.3896 176.815 12.963 176.634C12.5364 176.452 12.3378 175.959 12.5194 175.533L14.0643 176.19ZM14.338 169.936C14.4386 169.484 14.887 169.198 15.3396 169.299C15.7922 169.399 16.0776 169.848 15.977 170.3L14.338 169.936ZM16.7551 164.169C16.7361 164.633 16.3452 164.993 15.882 164.974C15.4187 164.955 15.0585 164.564 15.0775 164.101L16.7551 164.169ZM14.9178 158.169C14.8779 157.707 15.22 157.301 15.682 157.261C16.1439 157.221 16.5507 157.563 16.5906 158.025L14.9178 158.169ZM15.7874 151.95C15.8664 152.407 15.56 152.841 15.1031 152.92C14.6463 152.999 14.2119 152.692 14.133 152.235L15.7874 151.95ZM12.9338 146.369C12.8287 145.917 13.1095 145.466 13.5611 145.361C14.0127 145.256 14.4639 145.537 14.5691 145.988L12.9338 146.369ZM13.0611 140.089C13.1846 140.536 12.9225 140.999 12.4756 141.122C12.0287 141.246 11.5663 140.984 11.4428 140.537L13.0611 140.089ZM9.88514 134.701C9.79248 134.247 10.0856 133.804 10.5399 133.711C10.9942 133.618 11.4376 133.911 11.5303 134.366L9.88514 134.701ZM10.8586 128.669C10.8748 129.133 10.5122 129.522 10.0489 129.538C9.58551 129.554 9.1968 129.191 9.18066 128.728L10.8586 128.669ZM9.4427 122.725C9.49796 122.265 9.91594 121.937 10.3763 121.992C10.8366 122.047 11.165 122.465 11.1097 122.926L9.4427 122.725ZM12.1956 117.264C12.078 117.713 11.6191 117.981 11.1706 117.863C10.7222 117.746 10.4539 117.287 10.5715 116.838L12.1956 117.264ZM12.439 111.155C12.6092 110.724 13.0968 110.512 13.528 110.682C13.9593 110.852 14.1709 111.34 14.0007 111.771L12.439 111.155ZM16.4138 106.504C16.1991 106.915 15.692 107.074 15.281 106.86C14.8701 106.645 14.711 106.138 14.9257 105.727L16.4138 106.504ZM17.9451 100.581C18.1989 100.193 18.7192 100.084 19.1072 100.338C19.4952 100.592 19.6039 101.112 19.3501 101.5L17.9451 100.581ZM22.7642 96.8177C22.4711 97.1769 21.9422 97.2305 21.583 96.9374C21.2238 96.6442 21.1702 96.1154 21.4633 95.7562L22.7642 96.8177ZM25.6285 91.4818C25.9907 91.1923 26.519 91.2512 26.8085 91.6133C27.0979 91.9755 27.039 92.5037 26.6769 92.7932L25.6285 91.4818ZM31.4004 90.1385C30.9627 90.2914 30.484 90.0605 30.3311 89.6228C30.1782 89.1851 30.409 88.7064 30.8467 88.5535L31.4004 90.1385ZM36.799 87.6868C37.2621 87.7098 37.6189 88.1038 37.5959 88.5669C37.573 89.0299 37.179 89.3867 36.7159 89.3638L36.799 87.6868ZM41.8937 90.6841C41.4791 90.4765 41.3113 89.9721 41.5189 89.5575C41.7265 89.143 42.2308 88.9752 42.6454 89.1828L41.8937 90.6841ZM46.7564 93.2156C46.9538 93.6351 46.7738 94.1352 46.3544 94.3327C45.9349 94.5301 45.4347 94.3501 45.2373 93.9306L46.7564 93.2156ZM45.9685 98.277C46.0134 97.8156 46.4238 97.4778 46.8853 97.5227C47.3468 97.5675 47.6845 97.9779 47.6397 98.4394L45.9685 98.277ZM45.7565 103.385C45.484 103.76 44.959 103.843 44.5839 103.571C44.2088 103.298 44.1257 102.773 44.3982 102.398L45.7565 103.385ZM40.9802 105.34C41.3852 105.114 41.8965 105.26 42.1221 105.665C42.3478 106.07 42.2024 106.581 41.7974 106.807L40.9802 105.34ZM36.8283 108.595C36.3731 108.683 35.9328 108.386 35.8447 107.93C35.7567 107.475 36.0544 107.035 36.5096 106.947L36.8283 108.595ZM31.5717 107.287C32.0349 107.308 32.3937 107.7 32.3731 108.163C32.3526 108.626 31.9604 108.985 31.4972 108.964L31.5717 107.287ZM26.2282 108.149C25.7807 108.027 25.5163 107.566 25.6375 107.119C25.7588 106.671 26.2199 106.407 26.6674 106.528L26.2282 108.149ZM22.0802 104.68C22.4858 104.905 22.6324 105.416 22.4078 105.821C22.1831 106.227 21.6722 106.374 21.2666 106.149L22.0802 104.68ZM16.9518 102.964C16.6181 102.642 16.6086 102.111 16.9305 101.777C17.2524 101.443 17.7838 101.434 18.1175 101.756L16.9518 102.964ZM15.0428 97.9054C15.2845 98.301 15.1598 98.8177 14.7642 99.0595C14.3686 99.3012 13.8519 99.1765 13.6101 98.7809L15.0428 97.9054ZM11.3595 93.9458C11.2093 93.5072 11.443 93.0298 11.8816 92.8795C12.3203 92.7293 12.7976 92.963 12.9479 93.4016L11.3595 93.9458ZM11.7573 88.5418C11.8303 88.9996 11.5183 89.43 11.0605 89.503C10.6026 89.5761 10.1723 89.2641 10.0992 88.8063L11.7573 88.5418ZM9.74953 83.2188C9.77843 82.756 10.177 82.4043 10.6397 82.4332C11.1024 82.4621 11.4541 82.8606 11.4253 83.3234L9.74953 83.2188ZM12.3465 77.882C12.2308 78.331 11.7731 78.6012 11.3241 78.4855C10.8751 78.3699 10.6049 77.9121 10.7206 77.4632L12.3465 77.882ZM12.4662 71.9615C12.6261 71.5263 13.1085 71.3032 13.5437 71.463C13.9789 71.6229 14.2021 72.1053 14.0422 72.5405L12.4662 71.9615ZM16.142 67.3049C15.9593 67.731 15.4658 67.9284 15.0396 67.7457C14.6135 67.563 14.4162 67.0694 14.5988 66.6433L16.142 67.3049ZM16.9275 61.426C17.1212 61.0048 17.6197 60.8204 18.0409 61.0141C18.4622 61.2078 18.6466 61.7064 18.4528 62.1276L16.9275 61.426ZM20.8563 56.9789C20.6588 57.3984 20.1586 57.5783 19.7392 57.3808C19.3197 57.1833 19.1397 56.6832 19.3372 56.2637L20.8563 56.9789ZM21.755 51.1189C21.9512 50.6987 22.4508 50.5172 22.8709 50.7134C23.291 50.9096 23.4725 51.4091 23.2763 51.8292L21.755 51.1189ZM25.6583 46.6538C25.4673 47.0763 24.9701 47.264 24.5476 47.0731C24.1251 46.8822 23.9373 46.3849 24.1282 45.9624L25.6583 46.6538ZM26.4145 40.7727C26.5969 40.3464 27.0903 40.1487 27.5166 40.3311C27.9428 40.5135 28.1405 41.0069 27.9581 41.4331L26.4145 40.7727ZM30.1373 36.153C29.9664 36.584 29.4785 36.7948 29.0475 36.624C28.6165 36.4531 28.4056 35.9651 28.5765 35.5342L30.1373 36.153ZM30.5794 30.237C30.736 29.8006 31.2167 29.5737 31.6531 29.7303C32.0895 29.8869 32.3164 30.3676 32.1598 30.804L30.5794 30.237ZM33.9888 25.3878C33.8491 25.8299 33.3776 26.0751 32.9354 25.9355C32.4933 25.7959 32.2481 25.3243 32.3877 24.8822L33.9888 25.3878ZM33.9727 19.4585C34.0927 19.0107 34.553 18.7449 35.0009 18.865C35.4487 18.985 35.7144 19.4453 35.5944 19.8932L33.9727 19.4585ZM36.944 14.3223C36.8461 14.7755 36.3994 15.0635 35.9462 14.9656C35.493 14.8678 35.2049 14.4211 35.3028 13.9679L36.944 14.3223ZM36.3464 8.42706C36.4198 7.96927 36.8504 7.65762 37.3082 7.73099C37.766 7.80435 38.0776 8.23495 38.0042 8.69275L36.3464 8.42706ZM38.7493 3.00473C38.7026 3.466 38.2907 3.80206 37.8295 3.75536C37.3682 3.70863 37.0321 3.29681 37.0788 2.83553L38.7493 3.00473ZM3.31972 194.631C3.67641 193.628 4.04477 192.674 4.42115 191.76L5.97346 192.4C5.60711 193.289 5.24868 194.218 4.90161 195.193L3.31972 194.631ZM7.0014 186.219C7.97893 184.318 8.96216 182.562 9.87331 180.878L11.35 181.677C10.4241 183.388 9.46139 185.107 8.49446 186.987L7.0014 186.219ZM12.5194 175.533C13.2643 173.783 13.8888 171.958 14.338 169.936L15.977 170.3C15.5019 172.439 14.8426 174.362 14.0643 176.19L12.5194 175.533ZM15.0775 164.101C15.151 162.307 15.1058 160.345 14.9178 158.169L16.5906 158.025C16.784 160.264 16.8318 162.297 16.7551 164.169L15.0775 164.101ZM14.133 152.235C13.8181 150.413 13.4212 148.463 12.9338 146.369L14.5691 145.988C15.063 148.11 15.4665 150.092 15.7874 151.95L14.133 152.235ZM11.4428 140.537C11.1819 139.593 10.9054 138.624 10.6127 137.628L12.2235 137.155C12.5186 138.159 12.7977 139.136 13.0611 140.089L11.4428 140.537ZM10.6127 137.628C10.3249 136.65 10.0834 135.673 9.88514 134.701L11.5303 134.366C11.7192 135.292 11.9492 136.222 12.2235 137.155L10.6127 137.628ZM9.18066 128.728C9.10957 126.687 9.20781 124.682 9.4427 122.725L11.1097 122.926C10.8844 124.802 10.7907 126.721 10.8586 128.669L9.18066 128.728ZM10.5715 116.838C11.0886 114.866 11.7244 112.966 12.439 111.155L14.0007 111.771C13.3084 113.525 12.6943 115.362 12.1956 117.264L10.5715 116.838ZM14.9257 105.727C15.9012 103.86 16.9282 102.135 17.9451 100.581L19.3501 101.5C18.3608 103.012 17.362 104.689 16.4138 106.504L14.9257 105.727ZM21.4633 95.7562C22.1812 94.8764 22.8491 94.1202 23.4369 93.5013L24.6543 94.6577C24.0984 95.2429 23.4583 95.9671 22.7642 96.8177L21.4633 95.7562ZM23.4369 93.5013C24.1551 92.7453 24.8873 92.0743 25.6285 91.4818L26.6769 92.7932C25.9975 93.3363 25.3215 93.9552 24.6543 94.6577L23.4369 93.5013ZM30.8467 88.5535C32.9123 87.8319 34.9348 87.5945 36.799 87.6868L36.7159 89.3638C35.0547 89.2815 33.2495 89.4926 31.4004 90.1385L30.8467 88.5535ZM42.6454 89.1828C43.6775 89.6996 44.5534 90.3147 45.2059 90.9672L44.0187 92.1544C43.5168 91.6526 42.7971 91.1364 41.8937 90.6841L42.6454 89.1828ZM45.2059 90.9672C45.8272 91.5885 46.3523 92.357 46.7564 93.2156L45.2373 93.9306C44.9057 93.2262 44.4872 92.623 44.0187 92.1544L45.2059 90.9672ZM47.6397 98.4394C47.4773 100.11 46.8912 101.823 45.7565 103.385L44.3982 102.398C45.347 101.092 45.8334 99.6676 45.9685 98.277L47.6397 98.4394ZM41.7974 106.807C41.0849 107.204 40.3018 107.563 39.4443 107.879L38.8638 106.304C39.6446 106.016 40.3482 105.692 40.9802 105.34L41.7974 106.807ZM39.4443 107.879C38.654 108.17 37.774 108.412 36.8283 108.595L36.5096 106.947C37.3764 106.779 38.1679 106.56 38.8638 106.304L39.4443 107.879ZM31.4972 108.964C29.7938 108.889 28.0109 108.632 26.2282 108.149L26.6674 106.528C28.3233 106.977 29.9835 107.217 31.5717 107.287L31.4972 108.964ZM21.2666 106.149C19.7493 105.308 18.2918 104.257 16.9518 102.964L18.1175 101.756C19.3463 102.941 20.684 103.907 22.0802 104.68L21.2666 106.149ZM13.6101 98.7809C12.7341 97.3476 11.9744 95.7406 11.3595 93.9458L12.9479 93.4016C13.5247 95.0853 14.2331 96.5806 15.0428 97.9054L13.6101 98.7809ZM10.0992 88.8063C9.96449 87.9616 9.85637 87.0858 9.77655 86.1778L11.4491 86.0308C11.5256 86.9008 11.6289 87.7374 11.7573 88.5418L10.0992 88.8063ZM9.77655 86.1778C9.69223 85.2186 9.6863 84.2317 9.74953 83.2188L11.4253 83.3234C11.3666 84.2624 11.3729 85.1646 11.4491 86.0308L9.77655 86.1778ZM10.7206 77.4632C11.1749 75.6993 11.7672 73.8642 12.4662 71.9615L14.0422 72.5405C13.3573 74.4049 12.7835 76.1853 12.3465 77.882L10.7206 77.4632ZM14.5988 66.6433C15.3235 64.953 16.1054 63.2132 16.9275 61.426L18.4528 62.1276C17.6344 63.9068 16.859 65.6325 16.142 67.3049L14.5988 66.6433ZM19.3372 56.2637C20.1271 54.5861 20.9364 52.872 21.755 51.1189L23.2763 51.8292C22.4562 53.5856 21.6451 55.3035 20.8563 56.9789L19.3372 56.2637ZM24.1282 45.9624C24.8956 44.2642 25.6608 42.5342 26.4145 40.7727L27.9581 41.4331C27.1992 43.2069 26.4294 44.9474 25.6583 46.6538L24.1282 45.9624ZM28.5765 35.5342C29.2656 33.7963 29.9359 32.0304 30.5794 30.237L32.1598 30.804C31.5094 32.6165 30.8325 34.3997 30.1373 36.153L28.5765 35.5342ZM32.3877 24.8822C32.9508 23.0993 33.4815 21.2913 33.9727 19.4585L35.5944 19.8932C35.0964 21.7513 34.5587 23.583 33.9888 25.3878L32.3877 24.8822ZM35.3028 13.9679C35.6968 12.1436 36.0468 10.2966 36.3464 8.42706L38.0042 8.69275C37.6997 10.5934 37.3439 12.4701 36.944 14.3223L35.3028 13.9679ZM37.0788 2.83553C37.1732 1.90366 37.2541 0.966537 37.3207 0.0242157L38.9955 0.142624C38.9277 1.1022 38.8453 2.05624 38.7493 3.00473L37.0788 2.83553Z" fill="#18063C"/>
</svg>
