<svg width="438" height="115" viewBox="0 0 438 115" fill="none" xmlns="http://www.w3.org/2000/svg">
<path d="M407.005 53.1918C424.737 69.2037 410.037 79.2957 404.328 77.4009C398.619 75.506 396.116 68.1598 400.248 62.6949C403.141 58.8353 406.236 56.8837 407.005 53.1918Z" fill="#DCF375"/>
<path d="M71.3627 18.9892C108.067 -1.85594 116.827 28.4032 110.478 36.9256C104.129 45.4481 90.4177 45.5658 83.5474 35.6004C78.6813 28.6048 77.1277 22.3287 71.3627 18.9892Z" fill="#BBD645"/>
<path d="M357.333 21.4393C332.566 7.37343 326.655 27.7917 330.939 33.5424C335.223 39.2932 344.475 39.3726 349.111 32.6482C352.395 27.9277 353.443 23.6927 357.333 21.4393Z" fill="#BBD645"/>
<path d="M436.112 79.9583C414.76 55.531 400.735 75.2692 403.183 83.0625C405.631 90.8558 415.55 94.4156 423.061 88.9249C428.365 85.0815 431.083 80.9209 436.112 79.9583Z" fill="#BBD645"/>
<path d="M5.79367 76.1313C-0.263122 103.942 20.974 103.511 25.1869 97.7145C29.3997 91.9176 26.7251 83.0672 18.9316 80.6433C13.4519 78.914 9.09997 79.1727 5.79367 76.1313Z" fill="#BBD645"/>
<path d="M115.259 14.6987C95.9278 22.8377 105.19 35.4564 110.47 35.5382C115.751 35.62 119.951 30.2559 118.109 24.5306C116.828 20.4945 114.827 17.981 115.259 14.6987Z" fill="#DCF375"/>
<path d="M322.73 2.65574C342.061 10.7948 332.798 23.4134 327.518 23.4952C322.238 23.577 318.037 18.2129 319.88 12.4877C321.161 8.45154 323.162 5.93804 322.73 2.65574Z" fill="#DCF375"/>
<path d="M7.64319 107.489C9.66307 86.6118 24.4659 91.701 26.1148 96.7178C27.7637 101.735 23.8921 107.341 17.8778 107.285C13.6435 107.263 10.6485 106.1 7.64319 107.489Z" fill="#DCF375"/>
<path d="M149.954 71.6614C170.469 67.2993 170.075 82.9476 165.788 86.031C161.501 89.1144 154.989 87.1113 153.231 81.3593C151.976 77.315 152.183 74.1089 149.954 71.6614Z" fill="#DCF375"/>
<path d="M282.958 88.8817C282.476 109.851 297.78 106.561 300.015 101.776C302.25 96.9919 299.074 90.9641 293.096 90.3035C288.889 89.8209 285.777 90.6184 282.958 88.8817Z" fill="#DCF375"/>
<path d="M215.879 34.8466C215.397 55.8153 230.701 52.5259 232.935 47.7413C235.17 42.9567 231.994 36.929 226.016 36.2684C221.809 35.7857 218.697 36.5832 215.879 34.8466Z" fill="#DCF375"/>
<path d="M277.526 12.3933C257.747 5.41314 256.113 20.9809 259.965 24.5931C263.817 28.2053 270.534 27.0617 273.021 21.5856C274.789 17.7376 274.999 14.5318 277.526 12.3933Z" fill="#DCF375"/>
</svg>
