<svg width="70" height="58" viewBox="0 0 70 58" fill="none" xmlns="http://www.w3.org/2000/svg">
<path d="M57.8483 47.3947C40.3208 17.924 64.134 10.4489 71.0726 15.4853C78.0112 20.5217 78.465 31.6268 70.7272 37.3167C65.2964 41.346 60.3504 42.6831 57.8483 47.3947Z" fill="#BBD645"/>
<path d="M14.1627 13.737C48.2999 45.1074 64.2879 14.8106 59.4767 4.1117C54.6655 -6.5872 40.2068 -10.0817 30.7314 -1.08296C24.034 5.22352 20.9961 11.5721 14.1627 13.737Z" fill="#BBD645"/>
<path d="M45.646 33.3883C79.152 24.9125 66.8706 1.48856 58.245 -0.0315111C49.6194 -1.55158 41.5167 6.27277 43.2261 16.282C44.4007 23.3334 47.1023 28.04 45.646 33.3883Z" fill="#DCF375"/>
</svg>
