<svg width="126" height="47" viewBox="0 0 126 47" fill="none" xmlns="http://www.w3.org/2000/svg">
<mask id="mask0_18_3912" style="mask-type:alpha" maskUnits="userSpaceOnUse" x="0" y="2" width="124" height="43">
<path d="M0.240234 11.5333L1.44167 8.97024L2.48291 8.56976L8.73035 8.72995L16.2593 8.56976L26.1912 5.44604L27.8732 5.76642L31.2372 14.0963L24.9096 17.7006L17.4608 18.021V27.3121L20.5044 35.1614L14.0166 44.5326L13.0555 43.5715V30.3557L13.2157 18.4215C12.0143 18.9555 9.57936 20.0234 9.45121 20.0234C9.29102 20.0234 4.80567 20.9045 4.72558 20.8244C4.64548 20.7443 1.92224 19.1424 1.76205 19.1424C1.63389 19.1424 0.854299 16.5259 0.480521 15.2177L0.240234 11.5333Z" fill="#C4C4C4"/>
<path d="M33.3997 4.96547C34.2007 4.48489 35.8346 3.52375 35.9628 3.52375L42.5306 4.96547L45.0136 22.2661L47.5766 13.776L49.7392 12.1741L53.6639 23.1471L55.1056 13.2153L56.4672 3.20337L57.5886 2.08203L67.5204 3.20337L64.0763 20.8244L60.6322 37.0837L56.2269 43.5715L53.6639 43.8118L51.3411 42.9307L50.7805 40.9283L50.2198 34.3605L48.7781 27.8728L48.3776 29.3145L47.3363 35.3216L43.8121 36.2027L41.0889 34.3605L40.1278 29.8751L38.3657 23.3874L35.6424 13.2153L33.3997 7.12804V4.96547Z" fill="#C4C4C4"/>
<path d="M70.8844 7.60862L72.1659 6.56738L73.6077 7.20814L82.1779 8.48967L90.2675 6.64747L98.4372 4.48489L95.1533 13.6158L92.7505 16.339L84.0201 15.8584L84.3404 21.1447L89.2263 19.4627L89.7068 23.9481L84.7409 27.4723L86.2627 36.2828L76.8115 40.9283L75.8503 39.7269L77.0518 30.8363L77.2119 25.6301L76.8916 16.0186L74.5688 15.1376L72.1659 13.6959L70.7242 10.2518L70.8844 7.60862Z" fill="#C4C4C4"/>
<path d="M109.09 8.08919L111.172 6.00671L113.816 5.52614L120.944 4.96547L123.107 6.24699L123.827 10.3319L121.425 19.1424L117.74 27.9529L111.172 30.2756L109.17 27.9529L108.609 19.703L108.129 15.7784L108.369 12.5745L109.09 8.08919Z" fill="#C4C4C4"/>
<path d="M107.568 33.96L111.813 32.8387H113.816C114.072 32.8387 115.524 33.2125 116.218 33.3993L117.981 35.0013L118.701 37.7245L117.74 39.9672L114.456 41.9696C112.721 42.2365 109.17 42.7545 108.85 42.6904C108.529 42.6263 106.046 41.8094 104.845 41.4089L103.643 38.7657L104.364 36.443L107.568 33.96Z" fill="#C4C4C4"/>
</mask>
<g mask="url(#mask0_18_3912)">
<path d="M128.954 -1.60156H-3.20312V52.543H128.954V-1.60156Z" fill="url(#paint0_linear_18_3912)"/>
</g>
<path d="M31.2052 9.97989C30.3081 8.02556 29.6033 6.712 29.0746 6.05522C28.53 5.44649 27.7771 5.06203 26.816 4.93388H26.4795L20.5205 6.84015C17.1564 7.81731 14.6575 8.29789 13.0075 8.29789H12.3347C10.7969 8.29789 7.7212 8.18575 3.13974 7.94547C2.06646 8.16973 1.44172 8.29789 1.23347 8.29789C0.400477 9.0668 0 10.7488 0 13.3439C0 16.756 0.977164 19.303 2.91547 20.969C3.62031 21.5617 4.26108 22.2986 4.82174 23.2117C5.44649 24.333 6.19939 25.0378 7.08044 25.3422C7.56101 25.3422 8.12168 25.2621 8.76244 25.1179C8.95467 25.1179 10.2202 24.6694 12.575 23.7723C12.575 23.9165 12.6551 23.9966 12.7993 23.9966L12.6871 25.1179V27.9373C12.6871 29.5232 12.6551 31.3173 12.575 33.3197C12.6551 33.8323 12.6871 34.2488 12.6871 34.5532C12.607 36.4274 12.5269 37.6769 12.4628 38.2536L12.575 38.4778C12.5109 39.487 12.4628 40.1278 12.4628 40.3841C12.4628 41.2171 12.4949 42.3064 12.575 43.636C12.6551 44.6772 13.1357 45.2059 14.0327 45.2059C15.6026 46.4073 17.1244 47 18.6302 47L19.0787 46.7757C19.9438 45.8466 21.2573 43.9884 23.0034 41.1691C23.9005 38.9424 24.349 36.956 24.349 35.21C24.2048 33.9925 24.0446 33.1435 23.9005 32.6469C22.2505 28.7062 21.4335 25.8388 21.4335 23.9966V23.0995L21.6578 22.7471C23.9646 22.6029 25.7907 22.2986 27.1524 21.85C29.0426 21.3855 30.2761 20.8248 30.8528 20.168C32.1343 19.0147 33.0314 17.3327 33.544 15.122C33.4799 14.4492 33.4318 14.0487 33.4318 13.8885C33.4479 13.3599 32.695 12.0464 31.2052 9.97989ZM27.9533 14.8016C26.2553 16.4516 24.5252 17.2846 22.7952 17.2846L22.5709 17.1725L20.7768 17.3967L20.5525 17.2846C19.0948 17.5089 17.9734 17.621 17.1885 17.621C17.0443 17.621 16.804 17.7652 16.5157 18.0695C16.5157 18.2297 16.5477 18.3739 16.6278 18.502C16.5477 19.1428 16.5157 19.6714 16.5157 20.0719V21.1932L16.6278 22.3306C16.5477 22.3306 16.5157 22.3947 16.5157 22.5389L16.6278 22.7631C16.6278 22.8432 16.5958 22.9553 16.5157 23.1155L16.9642 27.5849C17.8613 31.1091 18.3098 33.4639 18.3098 34.6493V35.5624C17.7491 38.2055 17.0443 39.9196 16.1793 40.7205C15.0259 42.5947 14.241 43.652 13.8245 43.8603H13.7123C13.4881 43.8603 13.3279 42.4346 13.2638 39.5992C13.3279 39.3108 13.3759 38.9744 13.3759 38.59V37.4686L13.4881 36.7958C13.408 36.6677 13.3759 36.4915 13.3759 36.2352V34.441C13.3759 34.1687 13.408 33.8323 13.4881 33.4318L13.3759 33.2236C13.5201 24.301 13.7123 19.2549 13.9366 18.0855C13.7123 17.9574 13.6002 17.8453 13.6002 17.7331C13.2318 17.7331 12.7832 17.8132 12.2546 17.9574C11.1493 18.6302 8.57021 19.271 4.51738 19.8637C3.95671 19.8637 3.17178 19.4952 2.16258 18.7423C1.24949 16.788 0.800954 15.106 0.800954 13.6803V13.0075C0.849012 10.925 1.04124 9.88378 1.36162 9.88378C1.36162 9.45126 2.11452 9.11486 3.62031 8.87457C6.76005 9.09884 9.8998 9.24301 13.0395 9.32311C16.1793 9.11486 17.7491 8.89059 17.7491 8.65031C20.4564 7.97751 23.2918 7.08044 26.2713 5.9591H26.4956C27.8252 5.9591 28.6421 8.00954 28.9625 12.1264C28.9625 12.7832 28.6261 13.6803 27.9533 14.8016ZM63.788 0H62.5706C61.289 0.0800954 60.6483 0.224267 60.6483 0.448534C59.9434 0.480572 58.5978 1.07328 56.6115 2.24267C56.2751 2.24267 55.7464 5.07805 55.0416 10.7648C54.2727 10.2362 53.5518 9.97989 52.911 9.97989C51.6616 10.076 50.2038 10.8289 48.5378 12.2386C48.3616 12.2386 48.2014 11.9342 48.0893 11.3255C48.0893 10.3323 47.5607 8.28187 46.5194 5.15815C45.6704 3.81254 45.1097 3.1077 44.8374 3.02761C44.453 2.19461 42.5307 1.79414 39.1186 1.79414C37.5167 1.93831 36.2352 2.32277 35.3061 2.91547C33.7362 3.81254 32.9513 4.64553 32.9513 5.39843C32.7911 6.02318 32.9032 6.87219 33.2877 7.96149C34.409 10.5245 35.3862 13.2638 36.2031 16.1472C36.6036 18.2938 37.0041 19.9438 37.4046 21.1132C37.805 22.2825 38.4939 24.7815 39.471 28.5941C39.9356 31.6377 40.304 33.4799 40.5924 34.0886C40.5924 34.9697 41.7137 35.8027 43.9564 36.5556H45.6544C46.5995 36.5556 47.9131 35.8507 49.5791 34.425C49.7072 34.5852 49.7713 34.7454 49.7713 34.8896C50.0757 37.0842 50.2359 38.4298 50.2359 38.9104C50.2999 41.7137 50.7164 43.2515 51.4853 43.5559C52.4785 43.9243 53.3756 44.1326 54.1605 44.1806L54.9455 44.0685C55.3299 44.1326 55.5542 44.1806 55.6183 44.1806C55.7624 44.1806 55.8425 44.1486 55.8425 44.0685C56.9158 44.0685 57.8129 43.6841 58.5337 42.9312C60.1356 42.2584 61.5934 40.4642 62.923 37.5487C63.5317 35.5143 64.0603 34.0245 64.4928 33.0634C65.1977 30.1639 65.6142 28.6261 65.7263 28.4659C65.9666 27.2805 66.1909 26.4475 66.3991 25.999C66.8637 23.6442 67.2321 22.1063 67.5205 21.3855C69.7631 12.1905 70.5481 6.42365 69.8753 4.11691C69.0903 1.85821 67.0719 0.464554 63.788 0ZM64.6851 11.8862C63.2594 18.0695 62.106 22.5228 61.2089 25.2461C60.7604 26.6718 60.5361 27.4888 60.5361 27.713C60.3119 29.2028 59.8313 31.4134 59.0784 34.3289C58.5498 37.0682 58.0372 39.0866 57.5085 40.3841C57.076 42.4025 56.1309 43.4117 54.7052 43.4117H54.2566C54.0324 43.4117 53.5838 43.2996 52.911 43.0753C51.8378 42.9792 51.2771 42.2744 51.229 40.9448C51.0849 39.3429 50.7485 36.2672 50.2198 31.7498C49.9635 28.4659 49.5951 26.816 49.0985 26.816H48.9864C48.9223 26.816 48.8742 26.848 48.8742 26.9281C48.2335 26.9281 47.5126 28.6902 46.7437 32.1984C46.199 34.5852 45.4782 35.7866 44.6132 35.7866C43.8923 35.7866 43.2515 35.5624 42.7069 35.1138C42.1783 35.1138 41.5855 34.3609 40.9127 32.8551C40.6084 30.5164 40.272 28.7222 39.9035 27.4727C39.455 25.9509 39.0385 24.4932 38.638 23.1316C38.2376 21.7699 37.5007 18.8705 36.4274 14.4492C35.9789 13.0876 35.5944 11.9663 35.258 11.0692C34.9216 10.1721 34.409 8.60225 33.7362 6.3756C33.6721 5.91104 33.6721 5.52658 33.7362 5.23824C33.7362 5.02999 34.1527 4.80573 34.9697 4.56544C36.0269 4.26108 37.4847 4.38923 39.3589 4.9499C41.2171 5.51057 42.1622 6.19939 42.1622 7.03238C42.4506 9.38719 42.787 11.5658 43.1554 13.5521C43.604 16.2434 43.9403 18.5661 44.1806 20.5044C44.4049 22.4427 44.6292 23.4199 44.8534 23.4199C45.4141 23.0515 46.0549 21.7059 46.7597 19.3831C47.2082 17.8613 47.7048 16.5157 48.2174 15.3303C48.7461 13.7604 49.1626 12.9755 49.4349 12.9755C49.6111 13.0075 49.9475 13.7924 50.4441 15.3303C50.6844 17.0603 50.8766 17.9093 51.0048 17.9093C51.4213 20.0078 51.8378 21.4976 52.2382 22.3947C52.5426 23.8845 52.863 24.8776 53.1673 25.3582C53.6639 25.1339 54.0965 23.9165 54.4649 21.7219C54.6892 18.7584 55.1057 15.6667 55.6984 12.4148C56.1789 5.99114 56.7396 2.7713 57.3804 2.7713H57.8289C58.8541 3.07566 60.1357 3.63633 61.6414 4.45331C64.0443 5.46251 65.2297 6.31152 65.2297 7.03238C65.1016 9.25903 64.9093 10.8609 64.6851 11.8862ZM101.945 1.12134H100.824C98.7256 1.56987 96.1946 2.32277 93.199 3.36401C91.0204 4.1169 88.6176 4.64554 86.0225 4.93388C85.0774 4.8698 84.5167 4.82174 84.3245 4.82174L83.3313 4.93388C83.2512 4.93388 83.1391 4.90184 82.9789 4.82174C82.1619 4.88582 81.4571 4.93388 80.8483 4.93388H78.8299C77.8688 4.93388 77.1639 4.62952 76.6994 4.03681C74.713 4.66155 73.1752 5.27028 72.1019 5.83095C71.1888 5.83095 70.5961 6.47171 70.3078 7.73722C70.3078 7.81731 70.3398 7.92945 70.4199 8.07362C70.4199 8.15372 70.3879 8.26585 70.3078 8.41002C70.3078 10.7168 70.7883 12.575 71.7655 14.0167C72.1179 14.6254 72.9509 15.1861 74.2485 15.7147C75.8183 15.971 76.6033 16.2754 76.6033 16.6118C76.6033 18.2778 76.6353 22.5068 76.7154 29.2829C76.7154 30.3241 76.5712 31.862 76.2669 33.8964C75.6742 37.1803 75.3698 39.0065 75.3698 39.3909V39.7273C75.3698 40.1759 75.7863 40.7686 76.6033 41.5215H76.7154C78.3493 41.2812 79.3906 41.0569 79.8551 40.8487C80.9765 40.8006 81.5371 40.6404 81.5371 40.4001C82.3221 40.0958 83.1871 39.6793 84.1162 39.1667C85.3657 38.6541 86.6793 37.6929 88.0249 36.2512C89.1462 35.3061 89.7229 33.4318 89.7229 30.6445C89.7229 30.3722 89.3865 28.8824 88.7137 26.1752V25.9509C88.7137 25.5504 89.0821 25.1339 89.835 24.7174C92.2219 22.651 93.4233 20.6967 93.4233 18.8865C93.3112 18.4219 93.135 18.0535 92.8626 17.7652L88.1691 18.2137L87.9448 18.1016C87.9928 17.1404 88.153 16.6438 88.3933 16.6438C89.0341 16.6438 90.3797 16.756 92.4301 16.9802C92.4782 16.9802 92.9267 16.8361 93.7757 16.5477C94.1602 16.5477 95.1694 15.8749 96.8033 14.5293C98.181 13.3119 99.3023 11.9663 100.167 10.4925C101.961 7.19257 102.859 4.46933 102.859 2.30675C102.859 1.95433 102.554 1.58589 101.945 1.12134ZM97.2519 5.94308C97.2519 6.79209 96.6111 8.4741 95.3456 10.9891C93.984 14.3531 92.9588 16.0351 92.302 16.0351C87.7846 15.6667 84.9813 15.3943 83.892 15.2502C83.6677 15.2502 83.4755 15.3943 83.3313 15.6987V20.168C83.3313 20.5845 83.2512 21.1452 83.107 21.8661C83.2191 22.0903 83.3313 22.2025 83.4434 22.2025H83.6677C85.0613 21.6578 86.5191 21.2093 88.0409 20.8569C88.3453 20.8889 88.4894 21.001 88.4894 21.1932V21.6418C88.4894 22.4588 88.2331 23.4359 87.7045 24.5573C87.3521 24.9097 86.0866 25.7587 83.892 27.1203C84.0361 28.8344 84.1162 30.1159 84.1162 30.9489C84.3405 31.6537 84.5648 32.6309 84.789 33.8643V34.7614C84.789 36.2672 82.1779 38.1094 76.9397 40.256C76.411 39.9676 76.1547 39.7113 76.1547 39.471C76.1547 39.0706 76.1868 38.7342 76.2669 38.4618C76.7474 37.0521 77.1639 34.2168 77.5003 29.9397C77.5003 29.2348 77.4683 28.3698 77.3882 27.3606C77.4683 26.7359 77.5003 26.2072 77.5003 25.7907C77.5003 25.3903 77.4683 24.8616 77.3882 24.2209C77.4683 23.4359 77.5003 22.8112 77.5003 22.3146C77.5003 21.9301 77.4683 21.1933 77.3882 20.0719C77.4683 19.9277 77.5003 19.8156 77.5003 19.7355C77.5003 19.6554 77.4683 19.5433 77.3882 19.3831C77.4683 18.422 77.5003 17.637 77.5003 17.0443V15.6987C77.5003 15.4424 76.4591 15.106 74.3606 14.6895C72.2621 13.6803 71.2209 11.742 71.2209 8.85856C71.2209 7.89741 71.365 7.40082 71.6694 7.40082C71.9577 7.40082 72.2461 7.54499 72.5665 7.83333C74.4888 8.50613 76.8436 8.95467 79.6309 9.17894C82.6264 9.08282 84.1162 8.97069 84.1162 8.84254L88.0249 8.28187L96.8834 5.25426C97.1077 5.36639 97.2359 5.47853 97.2359 5.59066V5.94308H97.2519ZM125.67 12.2386C124.596 7.75324 123.699 5.49455 122.979 5.49455C122.979 4.74165 121.553 4.37321 118.717 4.37321C118.397 4.37321 116.411 4.67757 112.758 5.27028C111.317 5.27028 110.035 6.02318 108.946 7.52897C108.497 7.52897 108.113 10.3643 107.824 16.0511C108.353 20.9049 108.609 24.5733 108.609 27.0402V27.8252L110.852 32.3105C110.852 32.5027 110.596 32.6629 110.067 32.759C108.097 32.759 105.966 34.0726 103.676 36.6837C103.467 37.6609 103.291 38.3337 103.115 38.7021C103.115 39.0225 103.595 40.1599 104.573 42.0661C106.495 45.2059 108.193 46.7757 109.635 46.7757C110.275 46.7757 111.221 46.6956 112.438 46.5515C112.566 46.6155 112.742 46.6636 112.999 46.6636C113.367 46.4553 114.264 46.1189 115.69 45.6704C118.461 44.5331 119.839 42.7229 119.839 40.272C119.695 38.8943 119.502 37.6929 119.278 36.6837L117.933 34.1046C118.157 33.4158 118.333 33.0314 118.493 32.9833C120.496 29.4271 122.21 25.8868 123.651 22.3306C125.077 19.7355 125.782 17.1404 125.782 14.5774V13.2318C125.782 12.8473 125.75 12.5109 125.67 12.2386ZM118.269 36.7958C118.269 37.1162 118.013 37.6128 117.484 38.2536C115.642 40.272 112.678 41.2812 108.625 41.2812H107.056C105.117 40.8807 104.14 39.9516 104.14 38.4778C104.14 38.3977 104.172 38.2856 104.252 38.1254C104.252 37.2924 105.085 36.1711 106.735 34.7614C107.921 33.9765 109.346 33.5279 110.996 33.3998C111.381 33.4799 111.605 33.5119 111.669 33.5119L112.23 33.3998C113.431 33.4799 114.408 33.592 115.145 33.7522C117.228 34.4571 118.269 35.4663 118.269 36.7958ZM121.633 14.0167C119.31 19.9277 117.82 23.4039 117.148 24.4611C116.443 25.7587 115.818 26.6878 115.241 27.2645C115.241 27.9373 114.264 28.4499 112.326 28.8344C112.23 28.8344 111.829 28.7222 111.092 28.498C110.291 28.2577 109.763 27.8412 109.522 27.2645C109.378 23.5481 109.042 19.8476 108.513 16.1633C108.818 11.8541 109.042 9.54738 109.186 9.21097C109.939 7.19257 111.06 6.18337 112.55 6.18337C115.722 5.57464 117.708 5.27028 118.493 5.27028H120.624C120.768 5.27028 121.184 5.41445 121.857 5.71881C122.674 5.71881 123.075 6.92025 123.075 9.30709C122.562 11.2935 122.081 12.8633 121.633 14.0167Z" fill="#18063C"/>
<defs>
<linearGradient id="paint0_linear_18_3912" x1="-3.20312" y1="25.4707" x2="128.954" y2="25.4707" gradientUnits="userSpaceOnUse">
<stop stop-color="#647CF4"/>
<stop offset="0.2709" stop-color="#51FF95"/>
<stop offset="0.472" stop-color="#FFD2FB"/>
<stop offset="0.7067" stop-color="#FFFF9A"/>
<stop offset="0.9721" stop-color="#FFA172"/>
</linearGradient>
</defs>
</svg>
